<svg xmlns="http://www.w3.org/2000/svg" viewBox="0 0 512 512"><path class="a" d="M256 512c-68.38 0-132.667-26.629-181.02-74.98C26.629 388.667 0 324.38 0 256c0-48.419 13.591-95.567 39.303-136.346 25-39.648 60.332-71.686 102.178-92.65l21.5 42.916c-34.019 17.042-62.746 43.093-83.075 75.335C59.033 178.359 48 216.654 48 256c0 114.691 93.309 208 208 208s208-93.309 208-208c0-39.346-11.033-77.641-31.905-110.745-20.33-32.242-49.057-58.292-83.075-75.335l21.5-42.916c41.846 20.964 77.179 53.002 102.178 92.65C498.409 160.433 512 207.581 512 256c0 68.38-26.629 132.667-74.98 181.02C388.667 485.371 324.38 512 256 512z"/></svg>
