<svg xmlns="http://www.w3.org/2000/svg" viewBox="0 0 548.48 331.47"><title>cassette</title><path d="M175.61,6.12C170.9,8.85,44.68,100.42,29.47,111.78S1.08,134.49.26,136.9c-1.55,4.58,4.16,45.25,7,49.74.9,1.43,14.79,7.72,30.83,14S68.74,214.21,70.52,217c2.82,4.45,13.16,9.8,48.67,24.87,4.39,1.87,26.62,11.42,49.42,21.2s43.91,17.77,46.92,17.77c8.38,0,6.53-6.76-2.49-9.07-4.58-1.18-8-5.25-8-9.68,0-9.08-6.15-14.66-20-17.89-12.1-2.82-26.85-12.84-23.58-16,1.3-1.28,10.69.72,20.84,4.41,20,7.3,27,5.18,18.22-5.39-6.32-7.63-6-7.57,23.46,5l17,7.35v52.69l15,6.37c8.24,3.52,18,7.95,21.84,9.93,10.32,5.34,11.11,4.77,11.11-9.32,0-11.84-1.74-13.6-20.34-21.32-24.32-10.08-23.47-19.13,1-10.66,20.4,7.07,19.34,7.28,19.34-2.08,0-4.31,1.78-7.84,4-7.84,5.2,0,24.33-40.39,20.72-43.74-4.33-4-185.74-76-196.92-73.88-9.14,1.71-47.43-16.18-47.43-20.1,0-1.8,19.1-17.8,42.43-35.65L173.35,36.8c10.58-8.09,21.21-14.71,23.71-14.71,6.33,0,139.52,43,151.75,49,5.49,2.7,40.53,15.11,77.87,27.57s70,24.17,72.51,26.1c3.26,2.47-.07,7.78-11.24,18-16.16,14.8-34.36,30-48.17,43-34.46,32.39-62.8,55.87-67.38,55.87-2.11,0-14.83-4.42-28.33-9.8S319,222.45,318.36,223c-2.89,2.85-17.47,39.48-17.47,43.87,0,2.76,12.58,10.52,27.95,17.27,25.64,11.26,28,13.34,28,24.14,0,13.82-3,14.29-24.34,4.17-8.77-4.17-21.45-8.72-28.2-10.17-21.05-4.54-11.39,5.68,16.72,17.76,14.21,6.11,29.2,11.24,33.32,11.4s14.91-6.16,24-14.09C402.14,296.45,485.57,220.53,519.4,189l29.08-27.08V139.47c0-13.29-2-23.87-5-26.1-2.75-2.05-35.54-13.82-72.88-26.22S391,60.52,376.76,55.54s-36.29-12.12-48.91-15.8C305.32,33.17,233,10.15,215.25,5.15,204.13,2,198.5.67,194,.1,187-.8,177.92,4.79,175.61,6.12Zm12.84,47.34c-5,0-20.14,11.2-58.28,43-7.13,6-13,11.62-13,12.74,0,2.06,15.58,8.58,30,12.5,7.12,1.94,8,.28,8-15.32,0-12.84,2.35-19.82,8.86-26.22,12.23-12,15.27-6.88,5.37,9.07-12.14,19.55-10.52,25.61,9.61,35.65,9.8,4.89,17.54,10.71,17.22,12.87s2.82,4.48,7,5.26c6.65,1.26,6.86.74,2-5-5.08-6-4.59-6.2,6.12-1.71,16.06,6.73,22.29,12.83,9.73,9.55-9.59-2.5-9.69-2.41-2.24,3.43,4.26,3.35,9.78,6.13,12.35,6.13s17.07,4.92,32.2,11c32,12.92,51.08,18.25,47.92,13.23-1.22-1.93,2.31-2.73,7.74-1.72s9.85,4.41,9.85,7.48,7.64,8.91,17,13c20.34,8.87,33.55,9.69,40.68,2.69,2.89-2.84,11.15-9.84,18.22-15.68l12.85-10.66-5.86-17.52c-6.28-18.73-5.13-20.14,10.85-13,7.86,3.51,9.6,6.47,7.62,12.74-2.56,8.07-2.55,8.12,5.86.74,14.67-12.87,15.85-12.07-39.31-32.47-20.28-7.5-65.71-22.75-79.87-26.83-1.09-.32-7.38-2.7-14-5.27s-17.37-6.51-24-8.82-15.58-5.83-20-7.72C241.87,69.24,193.75,53.46,188.45,53.46Zm15.85,19.6c5.14,0,8.12,1.74,6.74,3.92-3,4.72-2.55,4.72-10,0C196.24,73.93,196.88,73.11,204.3,73.06ZM218,74c.24-.61,2.2.45,6.24,2.58C228.86,79,252.88,88.19,277.68,97c84.75,30,99.08,35.51,99.08,39.08,0,4.62-2.76,4.61-12.23-.37-17.3-9.09-40.82,14.9-31.44,32.1,2.16,4,3.49,7.19,2.87,7.11s-10.11-3.44-21.09-7.47c-106.87-39.22-125.24-47.3-107.32-47.3,10,0,21.46-11.74,21.46-22,0-4.2-2.91-11.77-6.49-16.79C219.37,76.86,217.79,74.66,218,74ZM198.19,93.28c7.67-.09,15.83,1.81,19.09,5.76,4.93,6,5,6.34-.25,3.18-7.91-4.78-27.95-5.75-27.95-1.34,0,1.9-2,3.55-4.37,3.55s-3.52-2.21-2.62-4.9C183.43,95.53,190.51,93.37,198.19,93.28Zm71.5,7.23c-6.43,0-20.71,10.81-20.71,15.68,0,1.53,8.14,5.83,18.09,9.56,15,5.64,19.1,6,24.34,1.71,9.36-7.62,23.63-8.35,29.45-1.47,4.26,5,3.81,7.08-2.5,11.77-4.63,3.44-5.52,5.68-2.37,5.75,8.16.2,22.93-15.08,18.59-19.23C329.63,119.53,277.67,100.51,269.69,100.51ZM239,147.68c2.2,0,6.69,1.71,10,3.8s4.19,3.8,2,3.8-6.69-1.71-10-3.8S236.8,147.68,239,147.68Zm130.66,1c3.44,0,6.43,1.35,11,4,10.29,6.1,16.5,26.22,8.11,26.22-2.47,0-3.45-1.8-2.12-3.92s.56-7.28-1.74-11.51c-3.2-5.86-7.72-7.44-19.1-6.74-13,.8-15.12,2.28-16.22,11.51-1.6,13.47-8.74,14-8.74.62,0-7.84,3.24-11.29,14.85-16C362.34,150.09,366.22,148.67,369.65,148.66ZM13.37,151.6l19,7c10.43,3.89,22.11,6.48,25.95,5.63,5.95-1.32,7,1.34,7,18.26,0,10.94-.45,19.79-1,19.6s-12.23-5.47-25.95-11.76c-23.61-10.82-25-12.2-25-25.12ZM259,155.52c2.2,0,6.69,1.71,10,3.8s4.2,3.8,2,3.8-6.69-1.71-10-3.8S256.76,155.52,259,155.52Zm-156.24,4.17c1.3-.47,3.66.28,8.11,2,3.46,1.3,5.33,3.95,4.12,5.88-3.61,5.73-13.73,4-13.73-2.33C101.22,161.9,101.42,160.16,102.72,159.69Zm180.2,5.39c.67-.28,2-.18,3.74.49,3.41,1.28,6.24,3.07,6.24,3.92,0,3.18-7.63,1.4-10-2.33C282.22,166.05,282.25,165.35,282.92,165.08ZM143,178.07c2.09-.2,4.17,1,5.11,3.8s-1.33,4.9-5,4.9-6.1-1.77-5.36-3.92C138.79,179.89,140.94,178.27,143,178.07Zm232,2.82a2.09,2.09,0,0,1,1.74,2.08c0,2.09-2.69,3.8-6,3.8s-6-.75-6-1.6,2.7-2.55,6-3.79A7.33,7.33,0,0,1,375,180.89ZM112.2,187.26c3.27.38,10,2.92,22.22,8,25.5,10.51,24.62,9.88,20,15.93-2.11,2.75-3.43,11.64-3,19.73.89,16.2-1.24,17-21.22,7.59-7.82-3.66-13-9-13-13.48,0-5.16-6.75-10.27-22.59-17.15C79.1,201.11,73.3,196.78,76.14,194s8.09-2.06,16.72,2.32c13.64,6.93,21.29,5.33,17.72-3.8C109.1,188.73,108.94,186.88,112.2,187.26Zm12.61,15.19c-5.37,0-4.48,21.09,1.12,26.59s15.23,6.28,15.23,1.22c0-1.92-2.7-4.51-6-5.76s-6-4-6-6.24,2.69-4,6-4,6-1.63,6-3.55C141.16,207.16,131.72,202.45,124.81,202.45Zm39.81,3.92a8.83,8.83,0,0,1,6.49,3.92c1.35,2.16.57,3.92-1.63,3.92s-5-1.76-6.36-3.92S162.42,206.37,164.62,206.37Zm14.47,8c2.2,0,6.69,1.71,10,3.8s4.19,3.8,2,3.8-6.69-1.71-10-3.8S176.9,214.33,179.09,214.33Zm41.06,25.49a6,6,0,0,0-4,.37c-3.86,2.34-4.24,22.55-.5,26.22,1.46,1.43,6.24,2.69,10.6,2.69,7.77,0,7.79-.18.5-8.08-6.38-6.93-6.61-8.61-1.62-11.77s5.07-4.15,0-7.35A15,15,0,0,0,220.15,239.82ZM281,233.1c-.58-1.24-2.8-2.35-7.15-4.25-3.39-1.48-6.62-.91-7.15,1.3-1.58,6.56,6.8,12.38,11.38,7.88C280.42,235.7,281.53,234.33,281,233.1ZM235.43,221c-1.22-1.68-1.18-4.06.79-6.25s5-1.32,6.82,1.8,1.49,6.06-.77,6.52C239.15,223.65,236.65,222.64,235.43,221Z"/></svg>